<mxfile host="Electron" agent="Mozilla/5.0 (Windows NT 10.0; Win64; x64) AppleWebKit/537.36 (KHTML, like Gecko) draw.io/28.0.4 Chrome/138.0.7204.97 Electron/37.2.1 Safari/537.36" version="28.0.4">
  <diagram name="Página-1" id="YvWDdfnbkkGfdAt3rinw">
    <mxGraphModel dx="1426" dy="841" grid="1" gridSize="10" guides="1" tooltips="1" connect="1" arrows="1" fold="1" page="1" pageScale="1" pageWidth="827" pageHeight="1169" math="0" shadow="0">
      <root>
        <mxCell id="0" />
        <mxCell id="1" parent="0" />
        <mxCell id="SUk9in6WjwDjqGugAQpC-22" value="" style="rounded=0;whiteSpace=wrap;html=1;fillColor=none;dashed=1;dashPattern=8 8;strokeWidth=2;strokeColor=#0E7DAD;" vertex="1" parent="1">
          <mxGeometry x="140" y="440" width="780" height="470" as="geometry" />
        </mxCell>
        <mxCell id="SUk9in6WjwDjqGugAQpC-1" value="Containers Diagram" style="text;html=1;align=center;verticalAlign=middle;resizable=0;points=[];autosize=1;strokeColor=none;fillColor=none;fontSize=30;fontStyle=1" vertex="1" parent="1">
          <mxGeometry x="537" y="160" width="290" height="50" as="geometry" />
        </mxCell>
        <mxCell id="SUk9in6WjwDjqGugAQpC-2" value="" style="group;spacingLeft=10;spacingRight=10;" vertex="1" connectable="0" parent="1">
          <mxGeometry x="210" y="150" width="204" height="170" as="geometry" />
        </mxCell>
        <mxCell id="SUk9in6WjwDjqGugAQpC-3" value="&lt;font style=&quot;&quot;&gt;&lt;font style=&quot;font-size: 16px;&quot;&gt;&lt;b style=&quot;&quot;&gt;Usuario&lt;/b&gt;&lt;/font&gt;&lt;br&gt;&lt;font style=&quot;font-size: 11px;&quot;&gt;[Person]&lt;/font&gt;&lt;/font&gt;&lt;div&gt;&lt;font&gt;Cliente que puede jugar al gacha ver su propia información.&lt;/font&gt;&lt;/div&gt;" style="rounded=1;whiteSpace=wrap;html=1;arcSize=30;strokeColor=#009900;fontColor=#009900;spacingLeft=10;spacingRight=10;spacing=2;" vertex="1" parent="SUk9in6WjwDjqGugAQpC-2">
          <mxGeometry y="68" width="204" height="102" as="geometry" />
        </mxCell>
        <mxCell id="SUk9in6WjwDjqGugAQpC-4" value="" style="ellipse;whiteSpace=wrap;html=1;aspect=fixed;fontColor=#009900;strokeColor=#009900;" vertex="1" parent="SUk9in6WjwDjqGugAQpC-2">
          <mxGeometry x="61.199999999999996" width="81.6" height="81.6" as="geometry" />
        </mxCell>
        <object placeholders="1" c4Name="UI" c4Type="Container" c4Technology="Javascript, React + Chakra UI" c4Description="UI dinámica para usuario, mostrando tiradas, animaciones y resultados." label="&lt;font style=&quot;font-size: 16px&quot;&gt;&lt;b&gt;%c4Name%&lt;/b&gt;&lt;/font&gt;&lt;div&gt;[%c4Type%:&amp;nbsp;%c4Technology%]&lt;/div&gt;&lt;br&gt;&lt;div&gt;&lt;font style=&quot;font-size: 11px&quot;&gt;&lt;font&gt;%c4Description%&lt;/font&gt;&lt;/font&gt;&lt;/div&gt;" id="SUk9in6WjwDjqGugAQpC-6">
          <mxCell style="shape=mxgraph.c4.webBrowserContainer2;whiteSpace=wrap;html=1;boundedLbl=1;rounded=0;labelBackgroundColor=none;strokeColor=#118ACD;fillColor=none;strokeColor=#118ACD;strokeColor2=#0E7DAD;fontSize=12;fontColor=#118ACD;align=center;metaEdit=1;points=[[0.5,0,0],[1,0.25,0],[1,0.5,0],[1,0.75,0],[0.5,1,0],[0,0.75,0],[0,0.5,0],[0,0.25,0]];resizable=0;" vertex="1" parent="1">
            <mxGeometry x="204" y="470" width="240" height="160" as="geometry" />
          </mxCell>
        </object>
        <object placeholders="1" c4Type="Relationship" c4Description="Realiza tiradas en el&#xa; gacha y solicita &#xa;su información" label="&lt;div style=&quot;text-align: left&quot;&gt;&lt;div style=&quot;text-align: center&quot;&gt;&lt;b&gt;%c4Description%&lt;/b&gt;&lt;/div&gt;&lt;/div&gt;" id="SUk9in6WjwDjqGugAQpC-10">
          <mxCell style="endArrow=blockThin;html=1;fontSize=12;fontColor=#404040;strokeWidth=2;endFill=1;strokeColor=#828282;elbow=vertical;metaEdit=1;endSize=14;startSize=14;jumpStyle=arc;jumpSize=16;rounded=0;edgeStyle=orthogonalEdgeStyle;exitX=0.5;exitY=1;exitDx=0;exitDy=0;entryX=0.5;entryY=0;entryDx=0;entryDy=0;entryPerimeter=0;dashed=1;dashPattern=12 12;" edge="1" parent="1" source="SUk9in6WjwDjqGugAQpC-3" target="SUk9in6WjwDjqGugAQpC-6">
            <mxGeometry width="240" relative="1" as="geometry">
              <mxPoint x="150" y="520" as="sourcePoint" />
              <mxPoint x="440" y="410" as="targetPoint" />
            </mxGeometry>
          </mxCell>
        </object>
        <object placeholders="1" c4Name="Backend" c4Type="Container" c4Technology="NestJS" c4Description="Gestiona la lógica de negocio, pulls, historial y usuarios.&#xa;Entrega información vía JSON/HTTP API." label="&lt;font style=&quot;font-size: 16px&quot;&gt;&lt;b&gt;%c4Name%&lt;/b&gt;&lt;/font&gt;&lt;div&gt;[%c4Type%: %c4Technology%]&lt;/div&gt;&lt;br&gt;&lt;div&gt;&lt;font style=&quot;font-size: 11px&quot;&gt;&lt;font&gt;%c4Description%&lt;/font&gt;&lt;/font&gt;&lt;/div&gt;" id="SUk9in6WjwDjqGugAQpC-11">
          <mxCell style="rounded=1;whiteSpace=wrap;html=1;fontSize=11;labelBackgroundColor=none;fillColor=none;fontColor=#0E7DAD;align=center;arcSize=10;strokeColor=#0E7DAD;metaEdit=1;resizable=0;points=[[0.25,0,0],[0.5,0,0],[0.75,0,0],[1,0.25,0],[1,0.5,0],[1,0.75,0],[0.75,1,0],[0.5,1,0],[0.25,1,0],[0,0.75,0],[0,0.5,0],[0,0.25,0]];strokeWidth=2;" vertex="1" parent="1">
            <mxGeometry x="204" y="720" width="240" height="120" as="geometry" />
          </mxCell>
        </object>
        <object placeholders="1" c4Type="Relationship" c4Technology="JSON/HTTP" c4Description="Llama a las APIs" label="&lt;div style=&quot;text-align: left&quot;&gt;&lt;div style=&quot;text-align: center&quot;&gt;&lt;b&gt;%c4Description%&lt;/b&gt;&lt;/div&gt;&lt;div style=&quot;text-align: center&quot;&gt;[%c4Technology%]&lt;/div&gt;&lt;/div&gt;" id="SUk9in6WjwDjqGugAQpC-12">
          <mxCell style="endArrow=blockThin;html=1;fontSize=12;fontColor=#404040;strokeWidth=2;endFill=1;strokeColor=#828282;elbow=vertical;metaEdit=1;endSize=14;startSize=14;jumpStyle=arc;jumpSize=16;rounded=0;edgeStyle=orthogonalEdgeStyle;exitX=0.5;exitY=1;exitDx=0;exitDy=0;exitPerimeter=0;entryX=0.5;entryY=0;entryDx=0;entryDy=0;entryPerimeter=0;dashed=1;dashPattern=12 12;" edge="1" parent="1" source="SUk9in6WjwDjqGugAQpC-6" target="SUk9in6WjwDjqGugAQpC-11">
            <mxGeometry width="240" relative="1" as="geometry">
              <mxPoint x="170" y="670" as="sourcePoint" />
              <mxPoint x="410" y="670" as="targetPoint" />
              <mxPoint as="offset" />
            </mxGeometry>
          </mxCell>
        </object>
        <object placeholders="1" c4Name="Base de datos" c4Type="Container" c4Technology="MongoDB" c4Description="Almacena información de los usuarios, pulls, personajes e historial." label="&lt;font style=&quot;font-size: 16px&quot;&gt;&lt;b&gt;%c4Name%&lt;/b&gt;&lt;/font&gt;&lt;div&gt;[%c4Type%:&amp;nbsp;%c4Technology%]&lt;/div&gt;&lt;br&gt;&lt;div&gt;&lt;font style=&quot;font-size: 11px&quot;&gt;&lt;font&gt;%c4Description%&lt;/font&gt;&lt;/font&gt;&lt;/div&gt;" id="SUk9in6WjwDjqGugAQpC-14">
          <mxCell style="shape=cylinder3;size=15;whiteSpace=wrap;html=1;boundedLbl=1;rounded=0;labelBackgroundColor=none;fillColor=none;fontSize=12;fontColor=#0E7DAD;align=center;strokeColor=#0E7DAD;metaEdit=1;points=[[0.5,0,0],[1,0.25,0],[1,0.5,0],[1,0.75,0],[0.5,1,0],[0,0.75,0],[0,0.5,0],[0,0.25,0]];resizable=0;strokeWidth=3;" vertex="1" parent="1">
            <mxGeometry x="602" y="720" width="240" height="120" as="geometry" />
          </mxCell>
        </object>
        <object placeholders="1" c4Type="Relationship" c4Description="Lectura y escritura" label="&lt;div style=&quot;text-align: left&quot;&gt;&lt;div style=&quot;text-align: center&quot;&gt;&lt;b&gt;%c4Description%&lt;/b&gt;&lt;/div&gt;&lt;/div&gt;" id="SUk9in6WjwDjqGugAQpC-15">
          <mxCell style="endArrow=blockThin;html=1;fontSize=12;fontColor=#404040;strokeWidth=2;endFill=1;strokeColor=#828282;elbow=vertical;metaEdit=1;endSize=14;startSize=14;jumpStyle=arc;jumpSize=16;rounded=0;edgeStyle=orthogonalEdgeStyle;exitX=1;exitY=0.25;exitDx=0;exitDy=0;exitPerimeter=0;entryX=-0.003;entryY=0.629;entryDx=0;entryDy=0;entryPerimeter=0;dashed=1;dashPattern=12 12;" edge="1" parent="1" source="SUk9in6WjwDjqGugAQpC-11" target="SUk9in6WjwDjqGugAQpC-14">
            <mxGeometry width="240" relative="1" as="geometry">
              <mxPoint x="530" y="880" as="sourcePoint" />
              <mxPoint x="670" y="780" as="targetPoint" />
            </mxGeometry>
          </mxCell>
        </object>
        <mxCell id="SUk9in6WjwDjqGugAQpC-16" value="" style="group;spacingLeft=10;spacingRight=10;" vertex="1" connectable="0" parent="1">
          <mxGeometry x="620" y="230" width="204" height="170" as="geometry" />
        </mxCell>
        <mxCell id="SUk9in6WjwDjqGugAQpC-17" value="&lt;font style=&quot;&quot;&gt;&lt;font style=&quot;font-size: 16px;&quot;&gt;&lt;b style=&quot;&quot;&gt;Administrador&lt;/b&gt;&lt;/font&gt;&lt;br&gt;&lt;font style=&quot;font-size: 11px;&quot;&gt;[Person]&lt;/font&gt;&lt;/font&gt;&lt;div&gt;&lt;font&gt;Puede modificar y ver información de otros usuarios.&lt;/font&gt;&lt;/div&gt;" style="rounded=1;whiteSpace=wrap;html=1;arcSize=30;strokeColor=#009900;fontColor=#009900;spacingLeft=10;spacingRight=10;spacing=2;" vertex="1" parent="SUk9in6WjwDjqGugAQpC-16">
          <mxGeometry y="68" width="204" height="102" as="geometry" />
        </mxCell>
        <mxCell id="SUk9in6WjwDjqGugAQpC-18" value="" style="ellipse;whiteSpace=wrap;html=1;aspect=fixed;fontColor=#009900;strokeColor=#009900;" vertex="1" parent="SUk9in6WjwDjqGugAQpC-16">
          <mxGeometry x="61.199999999999996" width="81.6" height="81.6" as="geometry" />
        </mxCell>
        <object placeholders="1" c4Type="Relationship" c4Description="Modifica usuarios, roles &#xa;y visualiza información &#xa;de otros usuarios." label="&lt;div style=&quot;text-align: left&quot;&gt;&lt;div style=&quot;text-align: center&quot;&gt;&lt;b&gt;%c4Description%&lt;/b&gt;&lt;/div&gt;&lt;/div&gt;" id="SUk9in6WjwDjqGugAQpC-20">
          <mxCell style="endArrow=blockThin;html=1;fontSize=12;fontColor=#404040;strokeWidth=2;endFill=1;strokeColor=#828282;elbow=vertical;metaEdit=1;endSize=14;startSize=14;jumpStyle=arc;jumpSize=16;rounded=0;edgeStyle=orthogonalEdgeStyle;exitX=0.5;exitY=1;exitDx=0;exitDy=0;entryX=1;entryY=0.5;entryDx=0;entryDy=0;entryPerimeter=0;dashed=1;dashPattern=12 12;" edge="1" parent="1" source="SUk9in6WjwDjqGugAQpC-17" target="SUk9in6WjwDjqGugAQpC-6">
            <mxGeometry x="-0.0015" width="240" relative="1" as="geometry">
              <mxPoint x="640" y="500" as="sourcePoint" />
              <mxPoint x="792" y="560" as="targetPoint" />
              <mxPoint as="offset" />
            </mxGeometry>
          </mxCell>
        </object>
        <mxCell id="SUk9in6WjwDjqGugAQpC-23" value="Simulador de Gacha [Software System]" style="text;html=1;align=center;verticalAlign=middle;resizable=0;points=[];autosize=1;strokeColor=none;fillColor=none;fontColor=#0E7DAD;fontStyle=1;fontSize=13;" vertex="1" parent="1">
          <mxGeometry x="170" y="870" width="250" height="30" as="geometry" />
        </mxCell>
      </root>
    </mxGraphModel>
  </diagram>
</mxfile>
